<svg width="735" height="304" viewBox="0 0 735 304" fill="none" xmlns="http://www.w3.org/2000/svg">
<g clip-path="url(#clip0_147_1847)">
<path d="M0.185185 45.2222H14.3704V59.4074H0.185185V45.2222ZM14.3704 45.2222H28.5556V59.4074H14.3704V45.2222ZM28.5556 45.2222H42.7407V59.4074H28.5556V45.2222ZM42.7407 45.2222H56.9259V59.4074H42.7407V45.2222ZM56.9259 45.2222H71.1111V59.4074H56.9259V45.2222ZM71.1111 45.2222H85.2963V59.4074H71.1111V45.2222ZM85.2963 45.2222H99.4815V59.4074H85.2963V45.2222ZM99.4815 45.2222H113.667V59.4074H99.4815V45.2222ZM99.4815 59.4074H113.667V73.5926H99.4815V59.4074ZM113.667 59.4074H127.852V73.5926H113.667V59.4074ZM85.2963 59.4074H99.4815V73.5926H85.2963V59.4074ZM71.1111 59.4074H85.2963V73.5926H71.1111V59.4074ZM56.9259 59.4074H71.1111V73.5926H56.9259V59.4074ZM42.7407 59.4074H56.9259V73.5926H42.7407V59.4074ZM28.5556 59.4074H42.7407V73.5926H28.5556V59.4074ZM14.3704 59.4074H28.5556V73.5926H14.3704V59.4074ZM0.185185 59.4074H14.3704V73.5926H0.185185V59.4074ZM0.185185 73.5926H14.3704V87.7778H0.185185V73.5926ZM14.3704 73.5926H28.5556V87.7778H14.3704V73.5926ZM28.5556 73.5926H42.7407V87.7778H28.5556V73.5926ZM42.7407 73.5926H56.9259V87.7778H42.7407V73.5926ZM71.1111 73.5926H85.2963V87.7778H71.1111V73.5926ZM85.2963 73.5926H99.4815V87.7778H85.2963V73.5926ZM99.4815 73.5926H113.667V87.7778H99.4815V73.5926ZM113.667 73.5926H127.852V87.7778H113.667V73.5926ZM127.852 73.5926H142.037V87.7778H127.852V73.5926ZM56.9259 73.5926H71.1111V87.7778H56.9259V73.5926ZM85.2963 87.7778H99.4815V101.963H85.2963V87.7778ZM99.4815 87.7778H113.667V101.963H99.4815V87.7778ZM127.852 87.7778H142.037V101.963H127.852V87.7778ZM113.667 87.7778H127.852V101.963H113.667V87.7778ZM113.667 101.963H127.852V116.148H113.667V101.963ZM113.667 116.148H127.852V130.333H113.667V116.148ZM127.852 116.148H142.037V130.333H127.852V116.148ZM127.852 130.333H142.037V144.519H127.852V130.333ZM127.852 101.963H142.037V116.148H127.852V101.963ZM99.4815 116.148H113.667V130.333H99.4815V116.148ZM99.4815 101.963H113.667V116.148H99.4815V101.963ZM85.2963 116.148H99.4815V130.333H85.2963V116.148ZM99.4815 130.333H113.667V144.519H99.4815V130.333ZM113.667 130.333H127.852V144.519H113.667V130.333ZM113.667 144.519H127.852V158.704H113.667V144.519ZM113.667 158.704H127.852V172.889H113.667V158.704ZM127.852 158.704H142.037V172.889H127.852V158.704ZM127.852 172.889H142.037V187.074H127.852V172.889ZM127.852 187.074H142.037V201.259H127.852V187.074ZM127.852 201.259H142.037V215.444H127.852V201.259ZM127.852 215.444H142.037V229.63H127.852V215.444ZM113.667 215.444H127.852V229.63H113.667V215.444ZM113.667 229.63H127.852V243.815H113.667V229.63ZM99.4815 229.63H113.667V243.815H99.4815V229.63ZM99.4815 215.444H113.667V229.63H99.4815V215.444ZM85.2963 215.444H99.4815V229.63H85.2963V215.444ZM85.2963 201.259H99.4815V215.444H85.2963V201.259ZM99.4815 201.259H113.667V215.444H99.4815V201.259ZM113.667 201.259H127.852V215.444H113.667V201.259ZM113.667 187.074H127.852V201.259H113.667V187.074ZM113.667 172.889H127.852V187.074H113.667V172.889ZM99.4815 172.889H113.667V187.074H99.4815V172.889ZM99.4815 187.074H113.667V201.259H99.4815V187.074ZM85.2963 172.889H99.4815V187.074H85.2963V172.889ZM85.2963 158.704H99.4815V172.889H85.2963V158.704ZM99.4815 158.704H113.667V172.889H99.4815V158.704ZM99.4815 144.519H113.667V158.704H99.4815V144.519ZM85.2963 144.519H99.4815V158.704H85.2963V144.519ZM85.2963 130.333H99.4815V144.519H85.2963V130.333ZM71.1111 158.704H85.2963V172.889H71.1111V158.704ZM56.9259 158.704H71.1111V172.889H56.9259V158.704ZM42.7407 158.704H56.9259V172.889H42.7407V158.704ZM42.7407 144.519H56.9259V158.704H42.7407V144.519ZM56.9259 144.519H71.1111V158.704H56.9259V144.519ZM56.9259 130.333H71.1111V144.519H56.9259V130.333ZM71.1111 130.333H85.2963V144.519H71.1111V130.333ZM42.7407 130.333H56.9259V144.519H42.7407V130.333ZM71.1111 144.519H85.2963V158.704H71.1111V144.519ZM14.3704 87.7778H28.5556V101.963H14.3704V87.7778ZM28.5556 87.7778H42.7407V101.963H28.5556V87.7778ZM28.5556 101.963H42.7407V116.148H28.5556V101.963ZM28.5556 116.148H42.7407V130.333H28.5556V116.148ZM28.5556 130.333H42.7407V144.519H28.5556V130.333ZM14.3704 130.333H28.5556V144.519H14.3704V130.333ZM0.185185 130.333H14.3704V144.519H0.185185V130.333ZM0.185185 116.148H14.3704V130.333H0.185185V116.148ZM0.185185 101.963H14.3704V116.148H0.185185V101.963ZM0.185185 87.7778H14.3704V101.963H0.185185V87.7778ZM14.3704 116.148H28.5556V130.333H14.3704V116.148ZM14.3704 144.519H28.5556V158.704H14.3704V144.519ZM14.3704 101.963H28.5556V116.148H14.3704V101.963ZM0.185185 144.519H14.3704V158.704H0.185185V144.519ZM0.185185 158.704H14.3704V172.889H0.185185V158.704ZM14.3704 158.704H28.5556V172.889H14.3704V158.704ZM28.5556 144.519H42.7407V158.704H28.5556V144.519ZM28.5556 158.704H42.7407V172.889H28.5556V158.704ZM28.5556 172.889H42.7407V187.074H28.5556V172.889ZM28.5556 187.074H42.7407V201.259H28.5556V187.074ZM28.5556 201.259H42.7407V215.444H28.5556V201.259ZM28.5556 215.444H42.7407V229.63H28.5556V215.444ZM42.7407 215.444H56.9259V229.63H42.7407V215.444ZM56.9259 215.444H71.1111V229.63H56.9259V215.444ZM71.1111 215.444H85.2963V229.63H71.1111V215.444ZM85.2963 229.63H99.4815V243.815H85.2963V229.63ZM99.4815 243.815H113.667V258H99.4815V243.815ZM85.2963 243.815H99.4815V258H85.2963V243.815ZM71.1111 243.815H85.2963V258H71.1111V243.815ZM56.9259 243.815H71.1111V258H56.9259V243.815ZM42.7407 243.815H56.9259V258H42.7407V243.815ZM28.5556 243.815H42.7407V258H28.5556V243.815ZM14.3704 243.815H28.5556V258H14.3704V243.815ZM0.185185 243.815H14.3704V258H0.185185V243.815ZM0.185185 229.63H14.3704V243.815H0.185185V229.63ZM0.185185 215.444H14.3704V229.63H0.185185V215.444ZM0.185185 201.259H14.3704V215.444H0.185185V201.259ZM0.185185 187.074H14.3704V201.259H0.185185V187.074ZM0.185185 172.889H14.3704V187.074H0.185185V172.889ZM14.3704 172.889H28.5556V187.074H14.3704V172.889ZM14.3704 187.074H28.5556V201.259H14.3704V187.074ZM14.3704 201.259H28.5556V215.444H14.3704V201.259ZM14.3704 215.444H28.5556V229.63H14.3704V215.444ZM14.3704 229.63H28.5556V243.815H14.3704V229.63ZM28.5556 229.63H42.7407V243.815H28.5556V229.63ZM42.7407 229.63H56.9259V243.815H42.7407V229.63ZM56.9259 229.63H71.1111V243.815H56.9259V229.63ZM71.1111 229.63H85.2963V243.815H71.1111V229.63ZM159.68 45.2222H173.865V59.4074H159.68V45.2222ZM159.68 59.4074H173.865V73.5926H159.68V59.4074ZM159.68 73.5926H173.865V87.7778H159.68V73.5926ZM159.68 87.7778H173.865V101.963H159.68V87.7778ZM159.68 101.963H173.865V116.148H159.68V101.963ZM159.68 116.148H173.865V130.333H159.68V116.148ZM159.68 130.333H173.865V144.519H159.68V130.333ZM159.68 144.519H173.865V158.704H159.68V144.519ZM159.68 158.704H173.865V172.889H159.68V158.704ZM159.68 172.889H173.865V187.074H159.68V172.889ZM159.68 187.074H173.865V201.259H159.68V187.074ZM159.68 201.259H173.865V215.444H159.68V201.259ZM159.68 215.444H173.865V229.63H159.68V215.444ZM159.68 229.63H173.865V243.815H159.68V229.63ZM159.68 243.815H173.865V258H159.68V243.815ZM173.865 243.815H188.051V258H173.865V243.815ZM188.051 243.815H202.236V258H188.051V243.815ZM188.051 229.63H202.236V243.815H188.051V229.63ZM188.051 215.444H202.236V229.63H188.051V215.444ZM188.051 201.259H202.236V215.444H188.051V201.259ZM188.051 187.074H202.236V201.259H188.051V187.074ZM188.051 172.889H202.236V187.074H188.051V172.889ZM188.051 158.704H202.236V172.889H188.051V158.704ZM188.051 144.519H202.236V158.704H188.051V144.519ZM188.051 130.333H202.236V144.519H188.051V130.333ZM188.051 45.2222H202.236V59.4074H188.051V45.2222ZM173.865 45.2222H188.051V59.4074H173.865V45.2222ZM173.865 59.4074H188.051V73.5926H173.865V59.4074ZM188.051 59.4074H202.236V73.5926H188.051V59.4074ZM188.051 73.5926H202.236V87.7778H188.051V73.5926ZM188.051 87.7778H202.236V101.963H188.051V87.7778ZM188.051 101.963H202.236V116.148H188.051V101.963ZM188.051 116.148H202.236V130.333H188.051V116.148ZM173.865 101.963H188.051V116.148H173.865V101.963ZM173.865 87.7778H188.051V101.963H173.865V87.7778ZM173.865 73.5926H188.051V87.7778H173.865V73.5926ZM173.865 116.148H188.051V130.333H173.865V116.148ZM173.865 130.333H188.051V144.519H173.865V130.333ZM173.865 229.63H188.051V243.815H173.865V229.63ZM173.865 215.444H188.051V229.63H173.865V215.444ZM173.865 201.259H188.051V215.444H173.865V201.259ZM173.865 187.074H188.051V201.259H173.865V187.074ZM173.865 172.889H188.051V187.074H173.865V172.889ZM173.865 158.704H188.051V172.889H173.865V158.704ZM173.865 144.519H188.051V158.704H173.865V144.519ZM472.204 101.963H486.389V116.148H472.204V101.963ZM458.019 116.148H472.204V130.333H458.019V116.148ZM458.019 130.333H472.204V144.519H458.019V130.333ZM443.834 116.148H458.019V130.333H443.834V116.148ZM443.834 101.963H458.019V116.148H443.834V101.963ZM458.019 101.963H472.204V116.148H458.019V101.963ZM458.019 144.519H472.204V158.704H458.019V144.519ZM443.834 144.519H458.019V158.704H443.834V144.519ZM443.834 158.704H458.019V172.889H443.834V158.704ZM443.834 130.333H458.019V144.519H443.834V130.333ZM443.834 172.889H458.019V187.074H443.834V172.889ZM443.834 187.074H458.019V201.259H443.834V187.074ZM443.834 201.259H458.019V215.444H443.834V201.259ZM443.834 215.444H458.019V229.63H443.834V215.444ZM443.834 229.63H458.019V243.815H443.834V229.63ZM458.019 229.63H472.204V243.815H458.019V229.63ZM472.204 229.63H486.389V243.815H472.204V229.63ZM472.204 243.815H486.389V258H472.204V243.815ZM458.019 243.815H472.204V258H458.019V243.815ZM443.834 243.815H458.019V258H443.834V243.815ZM472.204 215.444H486.389V229.63H472.204V215.444ZM472.204 201.259H486.389V215.444H472.204V201.259ZM472.204 187.074H486.389V201.259H472.204V187.074ZM472.204 172.889H486.389V187.074H472.204V172.889ZM472.204 158.704H486.389V172.889H472.204V158.704ZM472.204 144.519H486.389V158.704H472.204V144.519ZM472.204 130.333H486.389V144.519H472.204V130.333ZM472.204 116.148H486.389V130.333H472.204V116.148ZM458.019 158.704H472.204V172.889H458.019V158.704ZM458.019 187.074H472.204V201.259H458.019V187.074ZM458.019 201.259H472.204V215.444H458.019V201.259ZM458.019 215.444H472.204V229.63H458.019V215.444ZM458.019 172.889H472.204V187.074H458.019V172.889ZM543.13 130.333H557.315V144.519H543.13V130.333ZM543.13 116.148H557.315V130.333H543.13V116.148ZM528.945 116.148H543.13V130.333H528.945V116.148ZM514.76 116.148H528.945V130.333H514.76V116.148ZM557.315 116.148H571.5V130.333H557.315V116.148ZM543.13 101.963H557.315V116.148H543.13V101.963ZM528.945 101.963H543.13V116.148H528.945V101.963ZM514.76 101.963H528.945V116.148H514.76V101.963ZM500.575 101.963H514.76V116.148H500.575V101.963ZM500.575 116.148H514.76V130.333H500.575V116.148ZM486.389 116.148H500.575V130.333H486.389V116.148ZM486.389 130.333H500.575V144.519H486.389V130.333ZM528.945 130.333H543.13V144.519H528.945V130.333ZM528.945 144.519H543.13V158.704H528.945V144.519ZM514.76 130.333H528.945V144.519H514.76V130.333ZM500.575 130.333H514.76V144.519H500.575V130.333ZM486.389 144.519H500.575V158.704H486.389V144.519ZM574.903 101.963H589.088V116.148H574.903V101.963ZM574.903 116.148H589.088V130.333H574.903V116.148ZM574.903 229.63H589.088V243.815H574.903V229.63ZM574.903 243.815H589.088V258H574.903V243.815ZM589.088 243.815H603.273V258H589.088V243.815ZM589.088 101.963H603.273V116.148H589.088V101.963ZM631.644 101.963H645.829V116.148H631.644V101.963ZM645.829 101.963H660.014V116.148H645.829V101.963ZM660.014 101.963H674.199V116.148H660.014V101.963ZM674.199 101.963H688.385V116.148H674.199V101.963ZM688.385 116.148H702.57V130.333H688.385V116.148ZM674.199 116.148H688.385V130.333H674.199V116.148ZM660.014 116.148H674.199V130.333H660.014V116.148ZM645.829 116.148H660.014V130.333H645.829V116.148ZM631.644 116.148H645.829V130.333H631.644V116.148ZM617.459 116.148H631.644V130.333H617.459V116.148ZM589.088 116.148H603.273V130.333H589.088V116.148ZM603.273 201.259H617.459V215.444H603.273V201.259ZM617.459 229.63H631.644V243.815H617.459V229.63ZM617.459 215.444H631.644V229.63H617.459V215.444ZM617.459 243.815H631.644V258H617.459V243.815ZM631.644 243.815H645.829V258H631.644V243.815ZM645.829 243.815H660.014V258H645.829V243.815ZM660.014 243.815H674.199V258H660.014V243.815ZM674.199 243.815H688.385V258H674.199V243.815ZM660.014 229.63H674.199V243.815H660.014V229.63ZM645.829 229.63H660.014V243.815H645.829V229.63ZM631.644 229.63H645.829V243.815H631.644V229.63ZM674.199 229.63H688.385V243.815H674.199V229.63ZM688.385 229.63H702.57V243.815H688.385V229.63ZM674.199 215.444H688.385V229.63H674.199V215.444ZM660.014 215.444H674.199V229.63H660.014V215.444ZM688.385 215.444H702.57V229.63H688.385V215.444ZM702.57 215.444H716.755V229.63H702.57V215.444ZM702.57 201.259H716.755V215.444H702.57V201.259ZM688.385 187.074H702.57V201.259H688.385V187.074ZM688.385 201.259H702.57V215.444H688.385V201.259ZM674.199 201.259H688.385V215.444H674.199V201.259ZM702.57 187.074H716.755V201.259H702.57V187.074ZM702.57 172.889H716.755V187.074H702.57V172.889ZM688.385 172.889H702.57V187.074H688.385V172.889ZM688.385 158.704H702.57V172.889H688.385V158.704ZM688.385 144.519H702.57V158.704H688.385V144.519ZM702.57 144.519H716.755V158.704H702.57V144.519ZM702.57 130.333H716.755V144.519H702.57V130.333ZM702.57 158.704H716.755V172.889H702.57V158.704ZM674.199 172.889H688.385V187.074H674.199V172.889ZM674.199 187.074H688.385V201.259H674.199V187.074ZM674.199 158.704H688.385V172.889H674.199V158.704ZM674.199 144.519H688.385V158.704H674.199V144.519ZM674.199 130.333H688.385V144.519H674.199V130.333ZM660.014 130.333H674.199V144.519H660.014V130.333ZM688.385 130.333H702.57V144.519H688.385V130.333ZM617.459 130.333H631.644V144.519H617.459V130.333ZM631.644 130.333H645.829V144.519H631.644V130.333ZM645.829 130.333H660.014V144.519H645.829V130.333ZM631.644 215.444H645.829V229.63H631.644V215.444ZM645.829 215.444H660.014V229.63H645.829V215.444ZM603.273 243.815H617.459V258H603.273V243.815ZM603.273 229.63H617.459V243.815H603.273V229.63ZM603.273 215.444H617.459V229.63H603.273V215.444ZM589.088 215.444H603.273V229.63H589.088V215.444ZM589.088 229.63H603.273V243.815H589.088V229.63ZM589.088 201.259H603.273V215.444H589.088V201.259ZM603.273 187.074H617.459V201.259H603.273V187.074ZM603.273 172.889H617.459V187.074H603.273V172.889ZM603.273 158.704H617.459V172.889H603.273V158.704ZM603.273 144.519H617.459V158.704H603.273V144.519ZM603.273 130.333H617.459V144.519H603.273V130.333ZM603.273 116.148H617.459V130.333H603.273V116.148ZM603.273 101.963H617.459V116.148H603.273V101.963ZM589.088 130.333H603.273V144.519H589.088V130.333ZM589.088 144.519H603.273V158.704H589.088V144.519ZM589.088 158.704H603.273V172.889H589.088V158.704ZM589.088 172.889H603.273V187.074H589.088V172.889ZM589.088 187.074H603.273V201.259H589.088V187.074ZM574.903 201.259H589.088V215.444H574.903V201.259ZM574.903 215.444H589.088V229.63H574.903V215.444ZM574.903 187.074H589.088V201.259H574.903V187.074ZM574.903 172.889H589.088V187.074H574.903V172.889ZM574.903 158.704H589.088V172.889H574.903V158.704ZM574.903 144.519H589.088V158.704H574.903V144.519ZM574.903 130.333H589.088V144.519H574.903V130.333ZM617.459 144.519H631.644V158.704H617.459V144.519ZM574.903 258H589.088V272.185H574.903V258ZM589.088 258H603.273V272.185H589.088V258ZM603.273 258H617.459V272.185H603.273V258ZM603.273 272.185H617.459V286.37H603.273V272.185ZM603.273 286.37H617.459V300.556H603.273V286.37ZM589.088 286.37H603.273V300.556H589.088V286.37ZM574.903 286.37H589.088V300.556H574.903V286.37ZM589.088 272.185H603.273V286.37H589.088V272.185ZM574.903 272.185H589.088V286.37H574.903V272.185ZM574.903 300.556H589.088V314.741H574.903V300.556ZM589.088 300.556H603.273V314.741H589.088V300.556ZM603.273 300.556H617.459V314.741H603.273V300.556Z" fill="black"/>
<path d="M337.578 83.7979H327.913V93.4717H318.249V103.145H308.584V112.817H298.919V122.49H279.59V132.163H260.261V141.836H240.931V151.509H221.602V132.163H231.267V112.817H240.931V103.145H250.596V93.4717H260.261V83.7979H269.925V74.125H289.255V64.4521H337.578V83.7979Z" fill="#0FFFFF"/>
<path d="M356.907 74.125H376.237V112.817H356.907V132.163H337.578V141.836H327.913V151.509H308.584V161.182H298.919V170.855H269.925V180.528H221.602V141.836H240.931V132.163H260.261V122.49H279.59V112.817H298.919V103.145H308.584V93.4717H318.249V83.7979H327.913V74.125H337.578V64.4521H356.907V74.125Z" fill="#16D5FF"/>
<path d="M395.566 132.163H376.237V151.509H366.572V161.182H356.907V170.855H347.243V180.528H327.913V190.201H308.584V199.874H289.255V209.547H231.267V199.874H211.937V180.528H221.602V170.855H269.925V161.182H298.919V151.509H308.584V141.836H325.594V132.163H337.578V122.49H347.243V112.817H356.907V103.145H366.572V83.7979H385.901V93.4717H395.566V132.163Z" fill="#11ABFF"/>
<path d="M395.566 103.145H385.901V93.4717H395.566V103.145ZM385.901 93.4717H376.237V83.7979H385.901V93.4717ZM376.237 83.7979H366.572V74.125H376.237V83.7979ZM356.907 74.125H347.243V64.4521H356.907V74.125Z" fill="#109DFF"/>
<path d="M414.896 151.509H395.566V170.855H385.901V180.528H376.237V190.201H366.572V199.874H347.243V209.547H327.913V219.22H308.584V228.893H240.931V219.22H231.267V199.874H289.255V190.201H308.584V180.528H327.913V170.855H347.243V161.182H356.907V151.509H366.572V141.836H376.237V122.49H385.901V103.145H405.231V112.817H414.896V151.509ZM231.267 199.874H221.602V190.201H231.267V199.874Z" fill="#0973FF"/>
<path d="M414.896 132.163H424.561V161.182H414.896V170.855H405.231V180.528H395.566V190.201H385.901V199.874H366.572V209.547H347.243V219.22H327.913V228.893H308.584V238.565H298.919V248.239H250.596V228.893H289.255V219.22H308.584V209.547H327.913V199.874H347.243V190.201H366.572V180.528H376.237V170.855H385.901V161.182H395.566V141.836H405.231V112.817H414.896V132.163ZM250.596 228.893H240.931V219.22H250.596V228.893ZM240.931 219.22H231.267V209.547H240.931V219.22ZM405.231 112.817H395.566V103.145H405.231V112.817Z" fill="#084BFF"/>
<path d="M424.561 199.874H414.896V219.22H405.231V228.893H395.566V238.565H385.901V248.239H376.237V257.912H358.067V267.585H298.919V257.912H289.255V238.565H318.249V228.893H337.578V219.22H356.907V209.547H376.237V199.874H385.901V190.201H405.231V170.855H424.561V199.874Z" fill="#4123D0"/>
<path d="M472.884 83.7979H482.549V122.49H472.884V132.163H463.22V141.836H453.555V151.509H443.89V161.182H434.226V170.855H424.561V180.528H414.896V190.201H405.231V199.874H385.901V209.547H376.237V219.22H356.907V228.893H337.578V238.565H318.249V248.239H289.255V257.912H260.261V267.585H182.942V257.912H173.278V219.22H182.942V209.547H192.607V199.874H202.272V190.201H211.937V180.528H221.602V199.874H211.937V219.22H202.272V228.893H211.937V238.565H279.59V228.893H308.584V219.22H327.913V209.547H347.243V199.874H366.572V190.201H376.237V180.528H395.566V170.855H405.231V161.182H414.896V151.509H424.561V141.836H434.226V122.49H443.89V103.145H414.896V83.7979H453.555V74.125H472.884V83.7979Z" fill="#F651C4"/>
<path d="M202.272 267.585H182.942V257.912H202.272V267.585ZM260.261 267.585H250.596V257.912H260.261V267.585ZM182.942 257.912H173.278V248.239H182.942V257.912ZM289.255 257.912H279.59V248.239H289.255V257.912ZM211.937 238.565H260.261V248.239H211.937V239.34H202.272V229.667H211.937V238.565ZM318.249 248.239H308.584V238.565H318.249V248.239ZM298.919 238.565H279.59V228.893H298.919V238.565ZM337.578 238.565H327.913V228.893H337.578V238.565ZM202.272 228.893H192.607V219.22H202.272V228.893ZM318.249 228.893H308.584V219.22H318.249V228.893ZM356.907 228.893H347.243V219.22H356.907V228.893ZM211.937 219.22H202.272V209.547H211.937V219.22ZM337.578 219.22H327.913V209.547H337.578V219.22ZM376.237 219.22H366.572V209.547H376.237V219.22ZM356.907 209.547H347.243V199.874H356.907V209.547ZM385.901 209.547H376.237V199.874H385.901V209.547ZM221.602 199.874H211.937V190.201H221.602V199.874ZM376.237 199.874H366.572V190.201H376.237V199.874ZM405.231 199.874H385.901V190.201H405.231V199.874ZM385.901 190.201H376.237V180.528H385.901V190.201ZM414.896 190.201H405.231V180.528H414.896V190.201ZM424.561 180.528H414.896V170.855H424.561V180.528ZM424.561 161.182H414.896V151.509H424.561V161.182ZM434.226 151.509H424.561V141.836H434.226V151.509ZM443.89 132.163H434.226V122.49H443.89V132.163ZM453.555 112.817H443.89V103.145H453.555V112.817ZM472.884 83.7979H463.22V93.4717H443.89V103.145H395.566V93.4717H414.896V83.7979H434.226V74.125H472.884V83.7979ZM482.549 93.4717H472.884V83.7979H482.549V93.4717Z" fill="#D40091"/>
</g>
<defs>
<clipPath id="clip0_147_1847">
<rect width="735" height="304" fill="white"/>
</clipPath>
</defs>
</svg>
