<svg width="735" height="304" viewBox="0 0 735 304" fill="none" xmlns="http://www.w3.org/2000/svg">
<g clip-path="url(#clip0_11_85)">
<path d="M0.185185 45.2222H14.3704V59.4074H0.185185V45.2222ZM14.3704 45.2222H28.5556V59.4074H14.3704V45.2222ZM28.5556 45.2222H42.7407V59.4074H28.5556V45.2222ZM42.7407 45.2222H56.9259V59.4074H42.7407V45.2222ZM56.9259 45.2222H71.1111V59.4074H56.9259V45.2222ZM71.1111 45.2222H85.2963V59.4074H71.1111V45.2222ZM85.2963 45.2222H99.4815V59.4074H85.2963V45.2222ZM99.4815 45.2222H113.667V59.4074H99.4815V45.2222ZM99.4815 59.4074H113.667V73.5926H99.4815V59.4074ZM113.667 59.4074H127.852V73.5926H113.667V59.4074ZM85.2963 59.4074H99.4815V73.5926H85.2963V59.4074ZM71.1111 59.4074H85.2963V73.5926H71.1111V59.4074ZM56.9259 59.4074H71.1111V73.5926H56.9259V59.4074ZM42.7407 59.4074H56.9259V73.5926H42.7407V59.4074ZM28.5556 59.4074H42.7407V73.5926H28.5556V59.4074ZM14.3704 59.4074H28.5556V73.5926H14.3704V59.4074ZM0.185185 59.4074H14.3704V73.5926H0.185185V59.4074ZM0.185185 73.5926H14.3704V87.7778H0.185185V73.5926ZM14.3704 73.5926H28.5556V87.7778H14.3704V73.5926ZM28.5556 73.5926H42.7407V87.7778H28.5556V73.5926ZM42.7407 73.5926H56.9259V87.7778H42.7407V73.5926ZM71.1111 73.5926H85.2963V87.7778H71.1111V73.5926ZM85.2963 73.5926H99.4815V87.7778H85.2963V73.5926ZM99.4815 73.5926H113.667V87.7778H99.4815V73.5926ZM113.667 73.5926H127.852V87.7778H113.667V73.5926ZM127.852 73.5926H142.037V87.7778H127.852V73.5926ZM56.9259 73.5926H71.1111V87.7778H56.9259V73.5926ZM85.2963 87.7778H99.4815V101.963H85.2963V87.7778ZM99.4815 87.7778H113.667V101.963H99.4815V87.7778ZM127.852 87.7778H142.037V101.963H127.852V87.7778ZM113.667 87.7778H127.852V101.963H113.667V87.7778ZM113.667 101.963H127.852V116.148H113.667V101.963ZM113.667 116.148H127.852V130.333H113.667V116.148ZM127.852 116.148H142.037V130.333H127.852V116.148ZM127.852 130.333H142.037V144.519H127.852V130.333ZM127.852 101.963H142.037V116.148H127.852V101.963ZM99.4815 116.148H113.667V130.333H99.4815V116.148ZM99.4815 101.963H113.667V116.148H99.4815V101.963ZM85.2963 116.148H99.4815V130.333H85.2963V116.148ZM99.4815 130.333H113.667V144.519H99.4815V130.333ZM113.667 130.333H127.852V144.519H113.667V130.333ZM113.667 144.519H127.852V158.704H113.667V144.519ZM113.667 158.704H127.852V172.889H113.667V158.704ZM127.852 158.704H142.037V172.889H127.852V158.704ZM127.852 172.889H142.037V187.074H127.852V172.889ZM127.852 187.074H142.037V201.259H127.852V187.074ZM127.852 201.259H142.037V215.444H127.852V201.259ZM127.852 215.444H142.037V229.63H127.852V215.444ZM113.667 215.444H127.852V229.63H113.667V215.444ZM113.667 229.63H127.852V243.815H113.667V229.63ZM99.4815 229.63H113.667V243.815H99.4815V229.63ZM99.4815 215.444H113.667V229.63H99.4815V215.444ZM85.2963 215.444H99.4815V229.63H85.2963V215.444ZM85.2963 201.259H99.4815V215.444H85.2963V201.259ZM99.4815 201.259H113.667V215.444H99.4815V201.259ZM113.667 201.259H127.852V215.444H113.667V201.259ZM113.667 187.074H127.852V201.259H113.667V187.074ZM113.667 172.889H127.852V187.074H113.667V172.889ZM99.4815 172.889H113.667V187.074H99.4815V172.889ZM99.4815 187.074H113.667V201.259H99.4815V187.074ZM85.2963 172.889H99.4815V187.074H85.2963V172.889ZM85.2963 158.704H99.4815V172.889H85.2963V158.704ZM99.4815 158.704H113.667V172.889H99.4815V158.704ZM99.4815 144.519H113.667V158.704H99.4815V144.519ZM85.2963 144.519H99.4815V158.704H85.2963V144.519ZM85.2963 130.333H99.4815V144.519H85.2963V130.333ZM71.1111 158.704H85.2963V172.889H71.1111V158.704ZM56.9259 158.704H71.1111V172.889H56.9259V158.704ZM42.7407 158.704H56.9259V172.889H42.7407V158.704ZM42.7407 144.519H56.9259V158.704H42.7407V144.519ZM56.9259 144.519H71.1111V158.704H56.9259V144.519ZM56.9259 130.333H71.1111V144.519H56.9259V130.333ZM71.1111 130.333H85.2963V144.519H71.1111V130.333ZM42.7407 130.333H56.9259V144.519H42.7407V130.333ZM71.1111 144.519H85.2963V158.704H71.1111V144.519ZM14.3704 87.7778H28.5556V101.963H14.3704V87.7778ZM28.5556 87.7778H42.7407V101.963H28.5556V87.7778ZM28.5556 101.963H42.7407V116.148H28.5556V101.963ZM28.5556 116.148H42.7407V130.333H28.5556V116.148ZM28.5556 130.333H42.7407V144.519H28.5556V130.333ZM14.3704 130.333H28.5556V144.519H14.3704V130.333ZM0.185185 130.333H14.3704V144.519H0.185185V130.333ZM0.185185 116.148H14.3704V130.333H0.185185V116.148ZM0.185185 101.963H14.3704V116.148H0.185185V101.963ZM0.185185 87.7778H14.3704V101.963H0.185185V87.7778ZM14.3704 116.148H28.5556V130.333H14.3704V116.148ZM14.3704 144.519H28.5556V158.704H14.3704V144.519ZM14.3704 101.963H28.5556V116.148H14.3704V101.963ZM0.185185 144.519H14.3704V158.704H0.185185V144.519ZM0.185185 158.704H14.3704V172.889H0.185185V158.704ZM14.3704 158.704H28.5556V172.889H14.3704V158.704ZM28.5556 144.519H42.7407V158.704H28.5556V144.519ZM28.5556 158.704H42.7407V172.889H28.5556V158.704ZM28.5556 172.889H42.7407V187.074H28.5556V172.889ZM28.5556 187.074H42.7407V201.259H28.5556V187.074ZM28.5556 201.259H42.7407V215.444H28.5556V201.259ZM28.5556 215.444H42.7407V229.63H28.5556V215.444ZM42.7407 215.444H56.9259V229.63H42.7407V215.444ZM56.9259 215.444H71.1111V229.63H56.9259V215.444ZM71.1111 215.444H85.2963V229.63H71.1111V215.444ZM85.2963 229.63H99.4815V243.815H85.2963V229.63ZM99.4815 243.815H113.667V258H99.4815V243.815ZM85.2963 243.815H99.4815V258H85.2963V243.815ZM71.1111 243.815H85.2963V258H71.1111V243.815ZM56.9259 243.815H71.1111V258H56.9259V243.815ZM42.7407 243.815H56.9259V258H42.7407V243.815ZM28.5556 243.815H42.7407V258H28.5556V243.815ZM14.3704 243.815H28.5556V258H14.3704V243.815ZM0.185185 243.815H14.3704V258H0.185185V243.815ZM0.185185 229.63H14.3704V243.815H0.185185V229.63ZM0.185185 215.444H14.3704V229.63H0.185185V215.444ZM0.185185 201.259H14.3704V215.444H0.185185V201.259ZM0.185185 187.074H14.3704V201.259H0.185185V187.074ZM0.185185 172.889H14.3704V187.074H0.185185V172.889ZM14.3704 172.889H28.5556V187.074H14.3704V172.889ZM14.3704 187.074H28.5556V201.259H14.3704V187.074ZM14.3704 201.259H28.5556V215.444H14.3704V201.259ZM14.3704 215.444H28.5556V229.63H14.3704V215.444ZM14.3704 229.63H28.5556V243.815H14.3704V229.63ZM28.5556 229.63H42.7407V243.815H28.5556V229.63ZM42.7407 229.63H56.9259V243.815H42.7407V229.63ZM56.9259 229.63H71.1111V243.815H56.9259V229.63ZM71.1111 229.63H85.2963V243.815H71.1111V229.63ZM162.706 45.2222H176.891V59.4074H162.706V45.2222ZM162.706 59.4074H176.891V73.5926H162.706V59.4074ZM162.706 73.5926H176.891V87.7778H162.706V73.5926ZM162.706 87.7778H176.891V101.963H162.706V87.7778ZM162.706 101.963H176.891V116.148H162.706V101.963ZM162.706 116.148H176.891V130.333H162.706V116.148ZM162.706 130.333H176.891V144.519H162.706V130.333ZM162.706 144.519H176.891V158.704H162.706V144.519ZM162.706 158.704H176.891V172.889H162.706V158.704ZM162.706 172.889H176.891V187.074H162.706V172.889ZM162.706 187.074H176.891V201.259H162.706V187.074ZM162.706 201.259H176.891V215.444H162.706V201.259ZM162.706 215.444H176.891V229.63H162.706V215.444ZM162.706 229.63H176.891V243.815H162.706V229.63ZM162.706 243.815H176.891V258H162.706V243.815ZM176.891 243.815H191.076V258H176.891V243.815ZM191.076 243.815H205.261V258H191.076V243.815ZM191.076 229.63H205.261V243.815H191.076V229.63ZM191.076 215.444H205.261V229.63H191.076V215.444ZM191.076 201.259H205.261V215.444H191.076V201.259ZM191.076 187.074H205.261V201.259H191.076V187.074ZM191.076 172.889H205.261V187.074H191.076V172.889ZM191.076 158.704H205.261V172.889H191.076V158.704ZM191.076 144.519H205.261V158.704H191.076V144.519ZM191.076 130.333H205.261V144.519H191.076V130.333ZM191.076 45.2222H205.261V59.4074H191.076V45.2222ZM176.891 45.2222H191.076V59.4074H176.891V45.2222ZM176.891 59.4074H191.076V73.5926H176.891V59.4074ZM191.076 59.4074H205.261V73.5926H191.076V59.4074ZM191.076 73.5926H205.261V87.7778H191.076V73.5926ZM191.076 87.7778H205.261V101.963H191.076V87.7778ZM191.076 101.963H205.261V116.148H191.076V101.963ZM191.076 116.148H205.261V130.333H191.076V116.148ZM176.891 101.963H191.076V116.148H176.891V101.963ZM176.891 87.7778H191.076V101.963H176.891V87.7778ZM176.891 73.5926H191.076V87.7778H176.891V73.5926ZM176.891 116.148H191.076V130.333H176.891V116.148ZM176.891 130.333H191.076V144.519H176.891V130.333ZM176.891 229.63H191.076V243.815H176.891V229.63ZM176.891 215.444H191.076V229.63H176.891V215.444ZM176.891 201.259H191.076V215.444H176.891V201.259ZM176.891 187.074H191.076V201.259H176.891V187.074ZM176.891 172.889H191.076V187.074H176.891V172.889ZM176.891 158.704H191.076V172.889H176.891V158.704ZM176.891 144.519H191.076V158.704H176.891V144.519ZM487.333 101.963H501.518V116.148H487.333V101.963ZM473.148 116.148H487.333V130.333H473.148V116.148ZM473.148 130.333H487.333V144.519H473.148V130.333ZM458.962 116.148H473.148V130.333H458.962V116.148ZM458.962 101.963H473.148V116.148H458.962V101.963ZM473.148 101.963H487.333V116.148H473.148V101.963ZM473.148 144.519H487.333V158.704H473.148V144.519ZM458.962 144.519H473.148V158.704H458.962V144.519ZM458.962 158.704H473.148V172.889H458.962V158.704ZM458.962 130.333H473.148V144.519H458.962V130.333ZM458.962 172.889H473.148V187.074H458.962V172.889ZM458.962 187.074H473.148V201.259H458.962V187.074ZM458.962 201.259H473.148V215.444H458.962V201.259ZM458.962 215.444H473.148V229.63H458.962V215.444ZM458.962 229.63H473.148V243.815H458.962V229.63ZM473.148 229.63H487.333V243.815H473.148V229.63ZM487.333 229.63H501.518V243.815H487.333V229.63ZM487.333 243.815H501.518V258H487.333V243.815ZM473.148 243.815H487.333V258H473.148V243.815ZM458.962 243.815H473.148V258H458.962V243.815ZM487.333 215.444H501.518V229.63H487.333V215.444ZM487.333 201.259H501.518V215.444H487.333V201.259ZM487.333 187.074H501.518V201.259H487.333V187.074ZM487.333 172.889H501.518V187.074H487.333V172.889ZM487.333 158.704H501.518V172.889H487.333V158.704ZM487.333 144.519H501.518V158.704H487.333V144.519ZM487.333 130.333H501.518V144.519H487.333V130.333ZM487.333 116.148H501.518V130.333H487.333V116.148ZM473.148 158.704H487.333V172.889H473.148V158.704ZM473.148 187.074H487.333V201.259H473.148V187.074ZM473.148 201.259H487.333V215.444H473.148V201.259ZM473.148 215.444H487.333V229.63H473.148V215.444ZM473.148 172.889H487.333V187.074H473.148V172.889ZM558.259 130.333H572.444V144.519H558.259V130.333ZM558.259 116.148H572.444V130.333H558.259V116.148ZM544.073 116.148H558.259V130.333H544.073V116.148ZM529.888 116.148H544.073V130.333H529.888V116.148ZM572.444 116.148H586.629V130.333H572.444V116.148ZM558.259 101.963H572.444V116.148H558.259V101.963ZM544.073 101.963H558.259V116.148H544.073V101.963ZM529.888 101.963H544.073V116.148H529.888V101.963ZM515.703 101.963H529.888V116.148H515.703V101.963ZM515.703 116.148H529.888V130.333H515.703V116.148ZM501.518 116.148H515.703V130.333H501.518V116.148ZM501.518 130.333H515.703V144.519H501.518V130.333ZM544.073 130.333H558.259V144.519H544.073V130.333ZM544.073 144.519H558.259V158.704H544.073V144.519ZM529.888 130.333H544.073V144.519H529.888V130.333ZM515.703 130.333H529.888V144.519H515.703V130.333ZM501.518 144.519H515.703V158.704H501.518V144.519ZM593.057 101.963H607.242V116.148H593.057V101.963ZM593.057 116.148H607.242V130.333H593.057V116.148ZM593.057 229.63H607.242V243.815H593.057V229.63ZM593.057 243.815H607.242V258H593.057V243.815ZM607.242 243.815H621.428V258H607.242V243.815ZM607.242 101.963H621.428V116.148H607.242V101.963ZM649.798 101.963H663.983V116.148H649.798V101.963ZM663.983 101.963H678.168V116.148H663.983V101.963ZM678.168 101.963H692.353V116.148H678.168V101.963ZM692.353 101.963H706.539V116.148H692.353V101.963ZM706.539 116.148H720.724V130.333H706.539V116.148ZM692.353 116.148H706.539V130.333H692.353V116.148ZM678.168 116.148H692.353V130.333H678.168V116.148ZM663.983 116.148H678.168V130.333H663.983V116.148ZM649.798 116.148H663.983V130.333H649.798V116.148ZM635.613 116.148H649.798V130.333H635.613V116.148ZM607.242 116.148H621.428V130.333H607.242V116.148ZM621.428 201.259H635.613V215.444H621.428V201.259ZM635.613 229.63H649.798V243.815H635.613V229.63ZM635.613 215.444H649.798V229.63H635.613V215.444ZM635.613 243.815H649.798V258H635.613V243.815ZM649.798 243.815H663.983V258H649.798V243.815ZM663.983 243.815H678.168V258H663.983V243.815ZM678.168 243.815H692.353V258H678.168V243.815ZM692.353 243.815H706.539V258H692.353V243.815ZM678.168 229.63H692.353V243.815H678.168V229.63ZM663.983 229.63H678.168V243.815H663.983V229.63ZM649.798 229.63H663.983V243.815H649.798V229.63ZM692.353 229.63H706.539V243.815H692.353V229.63ZM706.539 229.63H720.724V243.815H706.539V229.63ZM692.353 215.444H706.539V229.63H692.353V215.444ZM678.168 215.444H692.353V229.63H678.168V215.444ZM706.539 215.444H720.724V229.63H706.539V215.444ZM720.724 215.444H734.909V229.63H720.724V215.444ZM720.724 201.259H734.909V215.444H720.724V201.259ZM706.539 187.074H720.724V201.259H706.539V187.074ZM706.539 201.259H720.724V215.444H706.539V201.259ZM692.353 201.259H706.539V215.444H692.353V201.259ZM720.724 187.074H734.909V201.259H720.724V187.074ZM720.724 172.889H734.909V187.074H720.724V172.889ZM706.539 172.889H720.724V187.074H706.539V172.889ZM706.539 158.704H720.724V172.889H706.539V158.704ZM706.539 144.519H720.724V158.704H706.539V144.519ZM720.724 144.519H734.909V158.704H720.724V144.519ZM720.724 130.333H734.909V144.519H720.724V130.333ZM720.724 158.704H734.909V172.889H720.724V158.704ZM692.353 172.889H706.539V187.074H692.353V172.889ZM692.353 187.074H706.539V201.259H692.353V187.074ZM692.353 158.704H706.539V172.889H692.353V158.704ZM692.353 144.519H706.539V158.704H692.353V144.519ZM692.353 130.333H706.539V144.519H692.353V130.333ZM678.168 130.333H692.353V144.519H678.168V130.333ZM706.539 130.333H720.724V144.519H706.539V130.333ZM635.613 130.333H649.798V144.519H635.613V130.333ZM649.798 130.333H663.983V144.519H649.798V130.333ZM663.983 130.333H678.168V144.519H663.983V130.333ZM649.798 215.444H663.983V229.63H649.798V215.444ZM663.983 215.444H678.168V229.63H663.983V215.444ZM621.428 243.815H635.613V258H621.428V243.815ZM621.428 229.63H635.613V243.815H621.428V229.63ZM621.428 215.444H635.613V229.63H621.428V215.444ZM607.242 215.444H621.428V229.63H607.242V215.444ZM607.242 229.63H621.428V243.815H607.242V229.63ZM607.242 201.259H621.428V215.444H607.242V201.259ZM621.428 187.074H635.613V201.259H621.428V187.074ZM621.428 172.889H635.613V187.074H621.428V172.889ZM621.428 158.704H635.613V172.889H621.428V158.704ZM621.428 144.519H635.613V158.704H621.428V144.519ZM621.428 130.333H635.613V144.519H621.428V130.333ZM621.428 116.148H635.613V130.333H621.428V116.148ZM621.428 101.963H635.613V116.148H621.428V101.963ZM607.242 130.333H621.428V144.519H607.242V130.333ZM607.242 144.519H621.428V158.704H607.242V144.519ZM607.242 158.704H621.428V172.889H607.242V158.704ZM607.242 172.889H621.428V187.074H607.242V172.889ZM607.242 187.074H621.428V201.259H607.242V187.074ZM593.057 201.259H607.242V215.444H593.057V201.259ZM593.057 215.444H607.242V229.63H593.057V215.444ZM593.057 187.074H607.242V201.259H593.057V187.074ZM593.057 172.889H607.242V187.074H593.057V172.889ZM593.057 158.704H607.242V172.889H593.057V158.704ZM593.057 144.519H607.242V158.704H593.057V144.519ZM593.057 130.333H607.242V144.519H593.057V130.333ZM635.613 144.519H649.798V158.704H635.613V144.519ZM593.057 258H607.242V272.185H593.057V258ZM607.242 258H621.428V272.185H607.242V258ZM621.428 258H635.613V272.185H621.428V258ZM621.428 272.185H635.613V286.37H621.428V272.185ZM621.428 286.37H635.613V300.556H621.428V286.37ZM607.242 286.37H621.428V300.556H607.242V286.37ZM593.057 286.37H607.242V300.556H593.057V286.37ZM607.242 272.185H621.428V286.37H607.242V272.185ZM593.057 272.185H607.242V286.37H593.057V272.185ZM593.057 300.556H607.242V314.741H593.057V300.556ZM607.242 300.556H621.428V314.741H607.242V300.556ZM621.428 300.556H635.613V314.741H621.428V300.556Z" fill="black"/>
<circle cx="334.22" cy="170.601" r="95.6015" fill="url(#paint0_linear_11_85)"/>
<g filter="url(#filter0_d_11_85)">
<path fill-rule="evenodd" clip-rule="evenodd" d="M240.518 189.657C239.544 184.842 238.932 179.896 238.711 174.848C197.852 201.97 175.218 228.093 182.28 242.572C193.067 264.689 271.295 249.69 355.419 208.66C439.543 167.63 498.617 118.475 487.829 96.3581C480.855 82.0578 445.687 86.2498 399.559 100.811C403.3 104.314 406.76 108.116 409.899 112.176C424.54 110.657 434.41 112.697 438.82 118.278C447.166 128.841 412.002 157.858 348.534 190.029C279.763 219.076 238.362 236.198 230.012 219.076C226.289 211.443 229.668 201.251 240.518 189.657Z" fill="url(#paint1_radial_11_85)"/>
</g>
</g>
<defs>
<filter id="filter0_d_11_85" x="161" y="71.522" width="348.1" height="205.249" filterUnits="userSpaceOnUse" color-interpolation-filters="sRGB">
<feFlood flood-opacity="0" result="BackgroundImageFix"/>
<feColorMatrix in="SourceAlpha" type="matrix" values="0 0 0 0 0 0 0 0 0 0 0 0 0 0 0 0 0 0 127 0" result="hardAlpha"/>
<feOffset dy="4"/>
<feGaussianBlur stdDeviation="10"/>
<feComposite in2="hardAlpha" operator="out"/>
<feColorMatrix type="matrix" values="0 0 0 0 0.402624 0 0 0 0 0.198082 0 0 0 0 0.688981 0 0 0 0.25 0"/>
<feBlend mode="normal" in2="BackgroundImageFix" result="effect1_dropShadow_11_85"/>
<feBlend mode="normal" in="SourceGraphic" in2="effect1_dropShadow_11_85" result="shape"/>
</filter>
<linearGradient id="paint0_linear_11_85" x1="283.948" y1="54.0392" x2="385.514" y2="266.203" gradientUnits="userSpaceOnUse">
<stop offset="0.02" stop-color="white"/>
<stop offset="0.18" stop-color="#8CFFEA"/>
<stop offset="0.555" stop-color="#4F93F2"/>
<stop offset="1" stop-color="#7121B4"/>
</linearGradient>
<radialGradient id="paint1_radial_11_85" cx="0" cy="0" r="1" gradientUnits="userSpaceOnUse" gradientTransform="translate(308.828 105.845) rotate(64.2241) scale(138.336 257.921)">
<stop offset="0.27"/>
<stop offset="0.59" stop-color="#613DBB"/>
<stop offset="0.81" stop-color="#ED4BF6"/>
<stop offset="0.94" stop-color="white"/>
</radialGradient>
<clipPath id="clip0_11_85">
<rect width="735" height="304" fill="white"/>
</clipPath>
</defs>
</svg>
